# xmcd
#
# Track frame offsets: 
#        150
#        15514
#        33992
#        45957
#        63038
#        74965
#        92475
#        106327
#        120539
#        130547
#
# Disc length: 2013 seconds
#
# Revision: 1
# Processed by: cddbd v1.5.2PL0 Copyright (c) Steve Scherf et al.
# Submitted via: ExactAudioCopy v0.99pb5
#
DISCID=7607db0a
DTITLE=Lisa Li Lund and French Cowboy - Share Horses
DYEAR=2008
DGENRE=Rock
TTITLE0=The End of The Story
TTITLE1=Room n°5
TTITLE2=Asian Brides
TTITLE3=Little 15
TTITLE4=12000 Waves
TTITLE5=Sleep Baby Sleep
TTITLE6=Timeless Melody
TTITLE7=Kiss My Drummer
TTITLE8=Deserted Whale
TTITLE9=Stormy Weather
EXTD=YEAR: 2008
EXTT0=
EXTT1=
EXTT2=
EXTT3=
EXTT4=
EXTT5=
EXTT6=
EXTT7=
EXTT8=
EXTT9=
PLAYORDER=
